# xmcd
#
# Track frame offsets: 
#        150
#        19824
#        38353
#        52472
#        68680
#        90076
#        108610
#        133713
#        155461
#        172593
#        192543
#
# Disc length: 2777 seconds
#
# Revision: 7
# Processed by: cddbd v1.5.2PL0 Copyright (c) Steve Scherf et al.
# Submitted via: ExactAudioCopyFreeDBPlugin 1.0
#
DISCID=880ad70b
DTITLE=Alanis Morissette - Flavors Of Entanglement
DYEAR=2008
DGENRE=Rock
TTITLE0=Citizen Of The Planet
TTITLE1=Underneath
TTITLE2=Straitjacket
TTITLE3=Versions Of Violence
TTITLE4=Not As We
TTITLE5=In Praise Of The Vulnerable Man
TTITLE6=Moratorium
TTITLE7=Torch
TTITLE8=Giggling Again For No Reason
TTITLE9=Tapes
TTITLE10=Incomplete
EXTD=YEAR: 2008
EXTT0=
EXTT1=
EXTT2=
EXTT3=
EXTT4=
EXTT5=
EXTT6=
EXTT7=
EXTT8=
EXTT9=
EXTT10=
PLAYORDER=
